<?xml version="1.0" standalone="no"?>
<!DOCTYPE svg PUBLIC "-//W3C//DTD SVG 20010904//EN"
 "http://www.w3.org/TR/2001/REC-SVG-20010904/DTD/svg10.dtd">
<svg version="1.0" xmlns="http://www.w3.org/2000/svg"
 width="995.000000pt" height="995.000000pt" viewBox="0 0 995.000000 995.000000"
 preserveAspectRatio="xMidYMid meet">
<metadata>
Created by potrace 1.11, written by Peter Selinger 2001-2013
</metadata>
<g transform="translate(0.000000,995.000000) scale(0.100000,-0.100000)"
fill="#000000" stroke="none">
<path d="M4057 9769 c-7 -4 -29 -6 -49 -5 -21 1 -38 -1 -38 -5 0 -4 -8 -8 -17
-8 -28 1 -83 -10 -143 -28 -30 -9 -63 -18 -73 -20 -11 -2 -41 -14 -68 -26 -26
-13 -46 -20 -43 -15 7 10 -52 -17 -129 -59 -33 -18 -63 -33 -68 -33 -5 0 -9
-5 -9 -11 0 -5 -4 -7 -10 -4 -5 3 -10 1 -10 -6 0 -7 -3 -10 -6 -7 -3 3 -17 -5
-31 -18 -14 -13 -31 -24 -38 -24 -7 0 -24 -9 -39 -21 -14 -11 -26 -18 -26 -16
0 3 -15 -9 -34 -26 -18 -18 -58 -56 -89 -84 -31 -29 -53 -53 -50 -53 4 0 -2
-8 -13 -19 -10 -10 -32 -35 -49 -56 -16 -21 -37 -45 -45 -55 -20 -22 -50 -71
-57 -92 -3 -10 -9 -18 -14 -18 -5 0 -9 -6 -9 -14 0 -7 -8 -24 -18 -37 -25 -31
-34 -69 -37 -149 -3 -61 -5 -66 -42 -97 -21 -18 -42 -33 -46 -33 -5 0 -15 -6
-22 -12 -31 -28 -45 -39 -45 -34 0 3 -36 -31 -80 -74 -44 -43 -80 -84 -80 -91
0 -7 -3 -10 -6 -6 -7 7 -104 -150 -104 -168 0 -6 -4 -15 -9 -20 -9 -11 -36
-83 -36 -100 0 -5 -6 -16 -13 -24 -10 -11 -10 -16 0 -29 11 -13 11 -14 -1 -7
-11 6 -13 4 -8 -8 4 -10 2 -17 -5 -17 -7 0 -6 -5 2 -15 11 -13 10 -14 -6 -8
-17 6 -18 5 -4 -13 8 -10 10 -16 6 -12 -9 8 -49 -93 -40 -101 2 -2 0 -9 -5
-15 -9 -11 -16 -44 -28 -141 -3 -22 -9 -45 -14 -51 -5 -6 -4 -15 3 -22 7 -7 8
-12 3 -12 -11 0 -13 -15 -15 -150 -2 -101 -7 -133 -19 -125 -5 2 -20 -6 -34
-19 -14 -13 -28 -21 -31 -18 -3 3 -6 0 -6 -6 0 -7 -7 -12 -16 -12 -8 0 -13 -4
-10 -8 3 -5 -8 -16 -25 -26 -16 -9 -29 -22 -29 -27 0 -6 -4 -8 -9 -4 -5 3 -12
-4 -16 -15 -3 -11 -13 -20 -21 -20 -8 0 -14 -7 -14 -15 0 -8 -4 -14 -9 -13 -5
2 -23 -12 -40 -29 -17 -18 -36 -33 -41 -33 -6 0 -10 -5 -10 -11 0 -5 -5 -7
-10 -4 -6 4 -9 3 -8 -2 2 -5 -21 -30 -50 -56 -29 -26 -50 -47 -48 -47 3 0 -44
-51 -105 -112 -61 -62 -117 -125 -125 -140 -8 -15 -24 -34 -36 -43 -13 -8 -23
-19 -23 -23 1 -8 -25 -39 -67 -84 -15 -15 -24 -28 -21 -28 4 0 -3 -9 -16 -21
-12 -12 -20 -27 -17 -35 3 -8 0 -14 -7 -14 -7 0 -30 -27 -52 -59 -22 -33 -44
-57 -50 -53 -5 3 -7 2 -3 -3 4 -4 3 -14 -3 -22 -6 -7 -8 -13 -5 -13 4 0 -4
-10 -17 -22 -21 -21 -32 -39 -36 -60 0 -5 -9 -17 -18 -27 -35 -38 -42 -49 -36
-55 4 -3 1 -6 -6 -6 -7 0 -10 -4 -6 -9 3 -6 -3 -14 -12 -20 -10 -5 -16 -11
-14 -13 5 -3 -28 -59 -40 -68 -4 -3 -10 -20 -14 -37 -3 -18 -10 -33 -14 -33
-5 0 -25 -34 -45 -75 -21 -42 -41 -73 -46 -70 -6 4 -16 -17 -20 -45 -1 -3 -8
-15 -16 -27 -8 -13 -11 -23 -7 -23 5 0 2 -4 -5 -9 -7 -4 -14 -18 -15 -29 -1
-12 -5 -22 -9 -22 -8 0 -41 -74 -39 -85 1 -3 -5 -13 -14 -21 -8 -9 -15 -22
-15 -30 0 -8 -4 -22 -9 -32 -24 -47 -46 -112 -43 -124 1 -5 -3 -8 -10 -8 -6 0
-9 -3 -5 -6 3 -4 -1 -21 -10 -38 -15 -28 -20 -44 -25 -83 -1 -7 -6 -13 -11
-13 -6 0 -7 -3 -4 -7 4 -3 3 -11 -2 -17 -8 -9 -14 -29 -37 -111 -2 -5 -10 -35
-19 -65 -9 -30 -18 -66 -21 -80 -3 -13 -11 -28 -17 -32 -9 -6 -8 -8 2 -8 10 0
11 -3 2 -13 -6 -8 -8 -17 -4 -20 3 -4 1 -7 -6 -7 -7 0 -10 -4 -7 -9 4 -5 2
-20 -3 -34 -5 -14 -13 -44 -16 -68 -4 -24 -12 -60 -19 -81 -9 -26 -10 -40 -3
-47 8 -8 7 -11 -2 -11 -7 0 -10 -4 -6 -9 3 -5 1 -12 -4 -15 -5 -3 -7 -19 -6
-36 1 -16 -2 -30 -7 -30 -5 0 -4 -9 2 -20 6 -11 7 -20 3 -20 -5 0 -10 -10 -11
-22 -1 -13 -4 -41 -7 -63 -8 -56 -14 -113 -19 -160 -2 -22 -5 -40 -6 -40 -1 0
-3 -40 -4 -88 -2 -48 -6 -90 -10 -94 -3 -3 -1 -12 5 -20 6 -7 8 -13 3 -13 -15
0 -4 -445 11 -469 3 -6 0 -11 -7 -11 -9 0 -9 -3 -2 -8 6 -4 11 -25 12 -47 1
-47 5 -66 15 -82 5 -7 4 -13 -2 -13 -7 0 -7 -8 -2 -23 5 -13 5 -30 1 -37 -5
-8 -6 -18 -4 -22 3 -4 1 -8 -5 -8 -10 0 -51 -79 -51 -99 0 -6 -5 -11 -12 -11
-6 0 -9 -3 -5 -6 3 -3 -1 -24 -9 -46 -7 -22 -11 -44 -8 -49 3 -5 1 -9 -4 -9
-11 0 -26 -45 -25 -72 0 -10 -4 -18 -9 -18 -5 0 -6 -9 -3 -20 4 -11 2 -20 -4
-20 -6 0 -11 -15 -11 -33 0 -19 -3 -37 -6 -40 -7 -6 -11 -38 -19 -147 -2 -30
-4 -57 -5 -60 -5 -13 0 -112 5 -120 4 -6 1 -10 -5 -10 -6 0 -8 -4 -5 -10 5 -9
17 -117 18 -160 0 -8 4 -21 10 -27 5 -7 7 -13 5 -13 -5 0 1 -39 19 -120 7 -36
8 -41 22 -90 7 -25 12 -45 11 -45 -1 0 8 -24 19 -53 11 -28 23 -67 26 -84 4
-18 11 -36 18 -40 7 -4 9 -8 4 -8 -4 0 0 -11 9 -25 9 -14 13 -25 9 -25 -4 0
-2 -6 4 -13 6 -8 7 -18 3 -22 -4 -5 -1 -5 5 -1 7 4 14 2 14 -3 1 -6 2 -14 4
-18 1 -5 5 -25 9 -45 5 -21 11 -38 15 -38 4 0 13 -16 20 -35 7 -19 17 -35 22
-35 6 0 8 -4 5 -9 -3 -5 6 -25 19 -46 14 -20 27 -42 28 -48 1 -6 8 -18 15 -25
7 -8 10 -18 7 -23 -4 -5 -1 -9 4 -9 6 0 11 -7 11 -15 0 -8 5 -15 10 -15 6 0
10 -6 10 -13 0 -7 11 -24 24 -39 14 -14 22 -29 19 -32 -4 -3 -2 -6 3 -6 5 0
20 -18 34 -40 14 -22 28 -40 32 -40 5 0 8 -5 8 -11 0 -17 46 -80 53 -72 4 3 7
1 7 -5 0 -13 43 -65 74 -91 44 -36 99 -91 92 -91 -4 0 10 -15 31 -32 21 -18
54 -48 73 -65 19 -18 40 -33 47 -33 6 0 18 -9 26 -20 8 -11 17 -17 20 -14 4 4
9 -1 13 -10 3 -9 13 -16 20 -16 8 0 17 -7 20 -15 4 -8 10 -13 14 -10 5 3 15
-3 22 -13 7 -10 36 -32 63 -50 28 -17 55 -36 61 -41 7 -5 15 -7 18 -4 3 4 6 0
6 -7 0 -7 3 -11 6 -7 4 3 22 -5 42 -18 19 -13 39 -22 44 -19 4 3 8 1 8 -5 0
-5 13 -12 30 -16 16 -4 30 -11 30 -16 0 -6 4 -7 10 -4 5 3 10 1 10 -4 0 -6 9
-11 19 -11 11 0 22 -4 25 -9 3 -4 26 -14 50 -21 25 -7 47 -18 50 -26 3 -8 13
-14 23 -14 10 0 31 -7 47 -15 15 -8 38 -17 50 -19 11 -2 33 -9 48 -15 16 -6
28 -8 28 -5 0 4 6 2 12 -3 7 -6 31 -14 53 -18 22 -5 45 -10 50 -12 39 -13 200
-46 225 -46 8 0 20 -3 25 -7 6 -4 25 -7 43 -6 17 0 32 -1 32 -4 0 -3 12 -6 28
-7 71 -3 207 -19 207 -23 0 -1 12 -3 28 -4 15 -1 27 2 27 7 0 5 6 5 13 0 6 -6
22 -9 35 -8 12 1 22 -2 22 -7 0 -5 4 -7 8 -4 5 3 21 -2 36 -9 16 -8 32 -13 36
-10 4 3 11 -2 14 -11 3 -8 11 -14 18 -13 7 1 21 -1 30 -4 10 -4 26 -10 35 -14
10 -3 20 -7 23 -7 7 -1 92 -27 110 -34 8 -3 21 -6 29 -8 7 -1 36 -8 65 -15 28
-7 54 -14 59 -15 4 -1 8 -2 10 -4 1 -1 16 -4 32 -6 45 -8 70 -12 70 -14 0 -3
42 -10 73 -12 17 0 32 -4 32 -8 0 -3 15 -7 33 -8 17 -1 48 -5 67 -7 19 -3 55
-8 80 -11 68 -8 89 -12 101 -20 8 -5 9 -3 4 5 -6 10 -3 11 12 3 12 -7 24 -7
37 0 11 6 16 7 13 1 -6 -10 40 -14 190 -17 46 0 83 -4 83 -8 0 -4 11 -3 25 2
17 7 25 6 25 -1 0 -8 4 -8 13 -2 10 8 32 10 40 3 6 -5 46 -6 42 -1 -1 3 45 7
103 7 162 2 236 8 244 19 5 6 8 5 8 -3 0 -9 5 -10 18 -3 13 7 23 6 30 -1 9 -9
12 -9 12 -1 0 8 15 11 40 10 22 -2 40 1 40 5 0 4 16 6 35 4 19 -1 35 0 35 3 0
4 15 7 33 7 17 1 46 4 62 7 17 4 53 9 80 11 28 3 66 8 85 11 51 8 99 15 145
20 115 14 391 71 419 86 13 7 16 7 11 0 -4 -8 1 -8 17 -2 13 5 37 13 53 17 33
8 41 10 53 14 4 1 11 2 16 1 4 -1 13 3 20 8 6 5 27 12 46 15 49 9 53 11 68 19
7 5 24 11 39 13 15 3 33 10 40 16 7 6 13 8 13 4 0 -3 12 -1 28 5 15 6 42 13
61 16 19 3 53 13 77 23 23 10 45 16 48 13 3 -4 6 -1 6 5 0 7 9 12 20 12 11 0
20 5 20 12 0 6 3 9 6 5 3 -3 27 4 52 15 76 33 97 41 102 43 3 0 20 9 38 18 17
10 32 14 32 10 0 -5 4 -3 8 2 8 12 64 39 75 37 4 -1 7 3 7 9 0 5 4 8 9 5 5 -3
14 0 20 8 11 14 58 31 74 28 4 -1 7 2 7 7 0 9 64 43 88 47 7 1 25 10 40 20 15
10 30 17 35 16 4 -1 7 2 7 8 0 5 6 10 14 10 8 0 27 10 43 22 15 13 49 34 76
48 26 13 47 28 47 32 0 5 7 8 15 8 7 0 19 8 24 18 6 9 11 13 11 9 0 -5 18 6
40 23 22 17 40 28 40 23 0 -4 5 0 11 10 6 9 14 15 20 12 5 -4 9 -1 9 5 0 6 11
15 25 20 14 5 25 14 25 20 0 6 5 8 11 5 6 -4 19 1 28 12 10 10 42 34 72 53 30
19 56 37 59 40 3 3 22 14 42 23 20 10 45 25 54 35 10 9 20 17 23 17 15 1 98
56 111 75 8 11 19 20 24 20 5 0 24 11 43 26 18 14 33 22 33 17 0 -4 7 2 15 14
9 13 31 30 49 38 18 9 43 25 54 35 12 11 26 20 31 20 5 0 16 9 24 20 8 11 17
17 20 13 4 -3 7 -1 7 5 0 7 4 11 9 10 5 -2 19 8 32 22 13 14 41 36 62 50 20
14 37 28 37 33 0 4 9 7 21 7 11 0 18 4 14 9 -3 5 8 18 24 27 17 10 28 21 25
26 -3 4 2 5 10 2 10 -4 16 -1 16 7 0 7 3 10 6 6 4 -3 19 6 34 21 15 15 37 33
48 41 12 8 19 17 17 21 -2 3 14 17 36 30 21 14 39 30 39 37 0 7 4 13 9 13 5 0
26 15 45 34 20 18 36 31 36 28 0 -2 17 14 39 37 21 22 41 38 45 34 5 -6 10 12
7 30 0 4 3 7 7 7 15 0 52 37 45 44 -3 3 0 6 8 6 8 0 21 9 29 21 8 11 30 29 48
40 17 12 32 25 32 29 0 5 18 27 41 50 22 22 38 40 35 40 -4 0 14 20 38 45 25
25 43 45 40 45 -4 0 11 17 32 39 22 21 52 55 69 75 16 20 32 40 35 43 3 3 -2
3 -10 -2 -8 -4 -6 1 5 12 18 18 39 43 101 122 11 14 23 34 27 44 3 9 11 17 17
17 6 0 9 4 5 9 -3 6 3 14 12 20 10 6 14 11 10 11 -5 0 -2 7 5 15 31 34 38 45
31 45 -4 0 -3 4 4 8 6 4 13 14 15 21 2 8 11 23 21 33 10 10 15 23 12 27 -2 5
2 11 10 15 8 3 15 12 15 20 0 8 5 16 10 18 6 2 12 13 13 26 0 12 4 22 7 22 4
0 19 28 35 62 15 35 35 69 43 76 9 7 11 12 4 12 -7 0 -3 14 9 35 12 19 18 35
13 35 -4 0 1 10 12 22 10 12 13 18 5 13 -9 -5 -7 1 4 19 10 14 15 26 12 26 -3
0 0 15 8 34 8 18 11 36 8 40 -4 3 -1 6 6 6 8 0 11 7 7 15 -3 8 -1 15 4 15 6 0
9 3 8 8 -3 10 16 128 22 135 7 7 5 209 -2 213 -5 3 -6 9 -3 13 6 10 -24 132
-37 148 -5 7 -7 16 -4 21 3 5 -3 20 -14 32 -11 12 -17 27 -14 31 3 5 0 9 -5 9
-6 0 -11 7 -11 15 0 8 -4 15 -10 15 -5 0 -10 5 -10 10 0 10 -14 28 -75 95 -17
18 -29 38 -27 44 2 6 -1 11 -7 11 -5 0 -21 11 -34 24 -14 14 -28 22 -31 19 -3
-4 -6 1 -6 10 0 10 -5 17 -11 17 -7 0 -19 8 -28 18 -20 22 -71 55 -71 46 0 -4
-8 3 -19 14 -10 12 -23 22 -30 22 -6 0 -11 4 -11 10 0 5 -11 12 -25 16 -14 3
-25 10 -25 16 0 5 -5 6 -10 3 -10 -6 -10 15 0 25 3 3 19 25 35 50 16 25 37 52
45 60 8 8 16 22 18 30 2 8 8 17 13 18 5 2 7 8 3 13 -3 5 0 9 6 9 6 0 9 4 6 9
-3 5 1 12 9 15 8 3 14 9 14 13 -2 9 12 46 20 53 13 11 61 90 61 100 0 6 11 27
24 48 12 20 24 40 25 44 2 13 36 83 42 88 3 3 15 30 28 60 32 79 42 103 53
124 5 10 11 28 14 39 2 11 7 23 11 26 8 6 14 25 17 51 0 8 7 21 14 28 6 7 12
21 13 30 2 39 11 77 19 80 5 2 6 10 3 18 -3 8 1 14 8 14 7 0 10 3 7 6 -4 3 -2
20 3 37 6 18 12 43 15 57 2 14 7 32 11 40 3 8 7 22 8 30 1 8 5 33 10 55 5 22
9 48 10 58 2 9 4 18 5 20 1 1 3 14 4 30 2 15 6 30 9 33 4 4 2 15 -4 25 -7 14
-6 19 2 19 6 0 9 9 6 20 -3 11 -2 22 2 24 9 6 6 364 -3 426 -16 109 -19 126
-19 138 0 6 -4 12 -8 12 -5 0 -4 12 1 26 7 16 7 23 0 19 -6 -3 -11 3 -11 14
-1 12 -2 24 -4 29 -1 4 -5 21 -9 37 -7 29 -27 83 -49 135 -5 14 -12 31 -14 38
-1 6 -5 18 -6 25 -7 21 -20 52 -26 57 -3 3 -20 25 -36 49 -17 25 -49 65 -72
89 -24 24 -43 48 -43 53 0 5 -7 9 -16 9 -8 0 -12 5 -9 10 3 6 0 10 -8 10 -8 0
-22 9 -32 20 -10 11 -24 20 -31 20 -7 0 -14 3 -16 8 -4 9 -80 46 -90 44 -5 -1
-8 3 -8 10 0 6 -2 9 -6 6 -3 -3 -26 1 -52 9 -73 24 -131 33 -209 36 -40 1 -73
5 -73 9 0 4 -12 4 -27 0 -16 -4 -61 -7 -100 -7 -40 0 -73 -2 -73 -5 0 -3 -21
-6 -48 -8 -26 -1 -56 -4 -67 -7 -11 -2 -49 -10 -85 -16 -36 -7 -67 -15 -70
-18 -5 -6 -19 -9 -72 -13 -16 -2 -28 -7 -28 -12 0 -4 -6 -6 -14 -3 -7 3 -19 0
-25 -6 -6 -6 -11 -7 -11 -3 0 5 -7 3 -15 -4 -8 -7 -15 -9 -15 -5 0 4 -8 1 -17
-6 -14 -12 -15 -12 -9 0 6 8 0 7 -18 -4 -14 -10 -26 -14 -26 -9 0 4 -5 3 -12
-4 -7 -7 -22 -12 -34 -12 -13 0 -26 -4 -29 -10 -3 -5 -12 -10 -20 -10 -8 0
-26 -5 -42 -11 -15 -6 -30 -10 -32 -9 -2 1 -7 -2 -10 -7 -11 -15 -45 -38 -37
-26 4 9 -2 8 -21 -2 -34 -19 -81 -37 -108 -42 -10 -2 -22 -7 -25 -11 -3 -4
-11 -8 -19 -10 -8 -2 -29 -9 -48 -17 -18 -8 -35 -13 -36 -12 -2 1 -15 -6 -30
-16 -15 -9 -27 -15 -27 -12 0 3 -17 -4 -37 -15 -21 -11 -43 -20 -50 -20 -7 0
-13 -4 -13 -10 0 -5 -8 -10 -17 -10 -9 0 -25 -8 -36 -17 -15 -13 -19 -14 -13
-3 5 9 2 8 -7 -2 -8 -10 -17 -15 -20 -11 -4 3 -7 2 -7 -4 0 -11 -69 -49 -82
-45 -5 1 -8 -3 -8 -8 0 -6 -9 -10 -20 -10 -11 0 -20 -4 -20 -9 0 -9 -38 -22
-52 -18 -4 1 -13 -7 -21 -17 -8 -10 -19 -16 -24 -13 -6 4 -14 0 -17 -9 -4 -9
-9 -14 -13 -11 -3 4 -11 3 -17 -2 -6 -5 -47 -28 -91 -52 -44 -23 -82 -45 -85
-49 -17 -24 -47 -27 -84 -9 -22 10 -48 19 -57 19 -10 0 -20 4 -24 10 -3 5 -12
7 -20 3 -24 -9 -17 7 15 34 26 21 60 71 61 88 0 2 6 20 14 39 8 20 15 37 15
40 0 3 5 17 12 33 6 15 12 31 13 36 2 4 4 9 5 12 1 3 3 8 5 13 1 4 7 21 14 37
7 17 14 35 15 40 1 6 6 20 10 32 8 26 24 110 31 173 6 48 12 85 15 85 10 0 19
464 9 471 -4 2 -5 25 -4 51 1 27 -3 54 -8 60 -5 7 -7 19 -4 28 4 8 2 17 -3 20
-5 3 -10 16 -10 28 1 35 -12 87 -20 87 -4 0 -8 6 -7 13 1 30 -4 48 -11 43 -5
-3 -8 5 -7 17 2 21 -42 147 -55 157 -8 7 -33 67 -30 76 1 4 -2 10 -7 13 -5 3
-14 17 -21 31 -13 27 -34 62 -42 70 -10 10 -31 45 -36 63 -4 9 -13 17 -20 17
-8 0 -14 3 -14 8 0 4 -14 23 -30 42 -16 19 -30 41 -30 49 0 8 -3 12 -6 8 -3
-3 -26 15 -51 39 l-45 45 24 22 c38 37 98 119 104 144 4 13 11 23 17 23 6 0 7
3 4 6 -3 4 -1 16 5 28 7 11 13 28 14 36 1 8 5 29 9 45 25 108 23 344 -4 365
-3 3 -7 14 -9 25 -5 27 -25 75 -33 75 -4 0 -12 14 -19 30 -7 17 -16 30 -21 30
-5 0 -9 6 -9 13 0 27 -125 129 -173 141 -15 3 -25 11 -22 15 3 5 -3 8 -12 7
-10 -2 -34 2 -53 8 -37 13 -164 13 -215 1 -16 -4 -36 -8 -42 -8 -7 0 -13 -4
-13 -8 0 -5 -7 -6 -15 -3 -8 4 -15 1 -15 -5 0 -6 -3 -10 -7 -9 -5 1 -24 -4
-43 -11 -19 -8 -37 -15 -40 -15 -33 -10 -50 -19 -50 -25 0 -4 -10 -8 -22 -8
-13 -1 -24 -7 -26 -13 -2 -5 -7 -8 -12 -5 -8 5 -29 -2 -85 -26 -11 -5 -31 -11
-45 -13 -14 -3 -25 -5 -25 -6 0 -3 -38 -9 -84 -15 -25 -4 -48 -8 -52 -11 -7
-4 -214 -6 -261 -2 -10 1 -18 4 -18 8 0 4 -11 5 -25 2 -14 -2 -25 0 -25 4 0 5
-12 9 -27 10 -16 0 -44 4 -63 8 -19 4 -39 9 -45 10 -5 1 -16 5 -22 9 -7 5 -17
6 -22 2 -5 -3 -13 -1 -16 5 -4 6 -15 8 -26 5 -10 -4 -19 -3 -19 2 0 8 -23 13
-67 16 -7 0 -13 4 -13 9 0 4 -9 8 -20 8 -11 0 -53 9 -93 19 -40 11 -88 23
-107 26 -19 4 -39 8 -45 9 -5 1 -16 5 -22 9 -7 5 -13 6 -13 2 0 -3 -9 -1 -19
5 -14 7 -21 6 -24 -3 -4 -9 -6 -9 -6 1 -1 7 -5 10 -11 7 -5 -3 -15 -3 -22 1
-7 4 -28 8 -48 9 -19 0 -41 4 -47 8 -8 5 -13 3 -13 -5 0 -8 -3 -9 -8 -2 -8 11
-275 14 -295 3z m2806 -1694 c-3 -9 -8 -14 -10 -11 -3 3 -2 9 2 15 9 16 15 13
8 -4z"/>
</g>
</svg>
